<svg preserveAspectRatio="none" overflow="visible" style="display: block;" width="32" height="21.3333" viewBox="0 0 32 21.3333" fill="none" xmlns="http://www.w3.org/2000/svg">
<g id="Vector"><path id="Vector_2" fill-rule="evenodd" clip-rule="evenodd" d="M15.9998 0C22.8985 0 28.8503 5.8509 31.2488 8.63998C31.2501 8.64265 31.2529 8.64532 31.2557 8.64798C32.2481 9.82267 32.2481 11.5107 31.2557 12.6853C31.2529 12.688 31.2515 12.6907 31.2488 12.6933C28.8506 15.4827 22.8971 21.3333 15.9998 21.3333C9.10112 21.3333 3.14931 15.4824 0.750902 12.6933C0.74952 12.6907 0.748137 12.688 0.745373 12.6853C-0.248458 11.5107 -0.248458 9.82264 0.745373 8.64798C0.748137 8.64532 0.74952 8.64265 0.750902 8.63998C3.14907 5.85059 9.10253 0 15.9998 0ZM15.9998 4.26674C12.3382 4.26674 9.36651 7.13478 9.36651 10.6669C9.36651 14.1989 12.3383 17.067 15.9998 17.067C19.6614 17.067 22.6346 14.1989 22.6346 10.6669C22.6346 7.13478 19.6614 4.26674 15.9998 4.26674ZM15.9998 6.40012C18.4408 6.40012 20.423 8.31216 20.423 10.6669C20.423 13.0216 18.4408 14.9336 15.9998 14.9336C13.5588 14.9336 11.5781 13.0216 11.5781 10.6669C11.5781 8.31216 13.5588 6.40012 15.9998 6.40012Z" fill="#BD933B"/></g>
</svg>
